<?xml version="1.0" standalone="no"?>
<!DOCTYPE svg PUBLIC "-//W3C//DTD SVG 1.1//EN" "http://www.w3.org/Graphics/SVG/1.1/DTD/svg11.dtd" >
<!--
2013-9-30: Created.
-->
<svg>
<metadata>
Created by iconfont
</metadata>
<defs>

<font id="anticon_user" horiz-adv-x="1024" >
  <font-face
    font-family="anticon_user"
    font-weight="500"
    font-stretch="normal"
    units-per-em="1024"
    ascent="896"
    descent="-128"
  />
    <missing-glyph />
    
    <glyph glyph-name="disk" unicode="&#63034;" d="M15.753846 880.246154L15.753846 880.246154 15.753846 880.246154ZM204.8-1.9692310000000361l630.153846 0c104.416492 0 189.046154 84.629662 189.046154 189.046154l-1008.246154 0c0-104.416492 84.629662-189.046154 189.046154-189.046154zM834.953846 124.06153800000004l63.015385 0 0-63.015385-63.015385 0 0 63.015385zM960.984615 754.215385l-882.215385 0-63.015385-504.123077 1008.246154 0z"  horiz-adv-x="1024" />

    
    <glyph glyph-name="notifier" unicode="&#63212;" d="M448.112436-7.968229999999949L557.152874 141.065062l-109.040439 31.40936L448.112436-7.968229999999949 448.112436-7.968229999999949zM62.939983 342.708572l309.787532-93.839225 381.527436 323.922461L458.546066 223.85258l331.214541-102.308107L960.387705 777.297504 62.939983 342.708572 62.939983 342.708572z"  horiz-adv-x="1024" />

    
    <glyph glyph-name="driver" unicode="&#63092;" d="M634.046149 57.12939400000005c-51.845809-16.893762-103.833857-23.00904-155.972331-18.348903-52.134381 4.65809-100.773148 18.348903-145.919371 41.068348-45.147246 22.715351-85.049025 53.589522-119.707382 92.620467-34.663474 39.030945-60.438511 84.46574-77.331249 136.311549-16.888645 51.844785-23.010063 103.832833-18.348903 155.967214 4.657067 52.139497 18.348903 100.923574 41.068348 146.359392 22.715351 45.439912 53.735855 85.485977 93.055372 120.144334 39.319517 34.663474 84.906785 60.434417 136.747477 77.332273 51.846832 16.888645 103.832833 23.00904 155.972331 18.346857 52.133358-4.656043 100.773148-18.494213 145.919371-41.503253 45.146223-23.00904 85.049025-54.028521 119.707382-93.056396 34.662451-39.029922 60.438511-84.46574 77.331249-136.311549 16.892739-51.845809 23.00904-103.833857 18.348903-155.971307-4.65809-52.135404-18.348903-100.773148-41.068348-145.919371-22.715351-45.146223-53.735855-85.049025-93.056396-119.707382C731.473085 99.79717000000005 685.891957 74.02315599999997 634.046149 57.12939400000005L634.046149 57.12939400000005 634.046149 57.12939400000005zM814.921659 534.217257c-13.979386 41.939181-34.95614 78.780251-62.915935 110.531396-27.959795 31.749098-60.139705 56.795541-96.55201 75.147514-36.410258 18.343787-75.730799 29.414937-117.959575 33.20424-42.23287 3.78521-84.319407-1.311879-126.263705-15.292288-41.939181-13.979386-78.782298-34.951023-110.531396-62.914912-31.749098-27.960819-56.795541-60.140729-75.143421-96.55201-18.352997-36.407188-29.562293-75.726705-33.644261-117.960599-4.077875-42.227754 0.87595-84.318384 14.855336-126.262682 13.981433-41.939181 34.952047-78.782298 62.911842-110.532419 27.958772-31.749098 60.291155-56.791447 96.992031-75.143421 36.69576-18.349927 76.166727-29.41903 118.395504-33.200146 42.23287-3.789303 84.319407 1.303692 126.263705 15.284101 41.940205 13.984503 78.782298 34.95614 110.532419 62.914912 31.749098 27.960819 56.795541 60.145845 75.148537 96.553033 18.343787 36.411281 29.413913 75.730799 33.202193 117.959575C833.995063 450.190515 828.901045 492.276029 814.921659 534.217257L814.921659 534.217257 814.921659 534.217257zM600.841909 158.48889699999995c-37.865399-12.231579-75.724659-16.746406-113.591081-13.543458-37.865399 3.207042-73.395614 13.104459-106.599853 29.710672-33.20424 16.597003-62.475913 39.170115-87.816045 67.717288-25.340131 28.54308-44.12394 61.745273-56.355519 99.611695-12.235672 37.862329-16.751522 75.874061-13.548574 114.028033 3.207042 38.150902 13.107529 73.831542 29.711695 107.035782 16.600073 33.20424 39.319517 62.475913 68.153216 87.816045 28.834722 25.339108 62.186318 44.122917 100.050694 56.359612 37.861306 12.231579 75.725682 16.604166 113.586988 13.103436 37.865399-3.491521 73.40073-13.539364 106.603947-30.143531 33.20424-16.600073 62.47796-39.173185 87.811951-67.720358 25.345248-28.54308 44.128033-61.746296 56.360635-99.607602 12.235672-37.864376 16.746406-75.877131 13.547551-114.032126-3.207042-38.149878-13.109576-73.688279-29.711695-106.59883-16.600073-32.914644-39.320541-62.034868-68.152193-87.377046C672.057881 189.508377 638.707308 170.725592 600.841909 158.48889699999995L600.841909 158.48889699999995 600.841909 158.48889699999995zM510.842129 486.159728c-15.145955 0-27.812439-5.101181-38.007639-15.295358-10.193153-10.1952-15.292288-22.86373-15.292288-38.009685 0-15.150048 5.098111-27.962865 15.292288-38.443567 10.194176-10.487865 22.86066-15.732309 38.007639-15.732309 15.149025 0 27.963888 5.244444 38.442544 15.732309 10.494005 10.480702 15.733333 23.293519 15.733333 38.443567 0 15.145955-5.239328 27.813462-15.733333 38.009685C538.806018 481.05957 525.991154 486.159728 510.842129 486.159728L510.842129 486.159728 510.842129 486.159728zM308.127218 573.535751l124.075877-71.6519c2.913353 1.747807 5.821589 3.789303 8.740058 6.116301 2.90926 1.747807 5.675256 3.789303 8.300037 6.116301 2.619664 2.330068 5.386684 4.371564 8.300037 6.119371 6.988158 4.074805 13.68672 6.988158 20.095687 8.735965 3.496637 1.165546 6.992251 2.037403 10.487865 2.623757L488.126778 674.89116c-9.900487-0.582261-20.098757-2.037403-30.583552-4.363378-9.323343-2.336208-19.806091-5.390777-31.457456-9.175987-11.648294-3.790326-24.173562-9.465582-37.570687-17.040095-15.144932-8.740058-27.817556-17.328667-38.007639-25.780153-10.199293-8.443299-18.499329-15.870456-24.908296-22.279423C318.61099 588.6806819999999 312.785308 581.107193 308.127218 573.535751L308.127218 573.535751 308.127218 573.535751zM286.278607 329.75249199999996l124.951827 71.647807c-1.166569 3.492544-2.037403 6.993275-2.619664 10.484795-0.582261 2.912329-1.019213 6.116301-1.311879 9.616008-0.293689 3.492544-0.435928 6.988158-0.435928 10.479679 0 8.157797 0.87595 15.443737 2.620687 21.849634 0.581238 3.491521 1.458211 6.992251 2.619664 10.483772L288.903388 535.965064c-4.078899-8.157797-7.864108-17.477047-11.359722-27.964912-2.90926-8.735965-5.676279-19.371186-8.300037-31.887244-2.619664-12.526291-3.935636-26.363438-3.935636-41.508369-0.579191-17.476023 0.292666-32.767288 2.628874-45.87584 2.325975-13.104459 4.945639-24.02723 7.858992-32.764218C278.709211 345.47661500000004 282.204825 336.74064999999996 286.278607 329.75249199999996L286.278607 329.75249199999996 286.278607 329.75249199999996zM487.250828 189.068356l0.87595 144.17668c-3.495614 0.582261-6.992251 1.747807-10.487865 3.496637-6.40999 1.743714-12.521175 4.66116-18.34788 8.735965-3.496637 1.747807-6.698562 3.789303-9.611915 6.115278-2.913353 2.331092-5.533017 4.662183-7.864108 6.992251-2.325975 2.331092-4.955872 4.66116-7.864108 6.989181l-123.20402-70.776973c5.244444-8.15268 11.360745-16.306384 18.352997-24.463158 6.404873-6.988158 14.268982-14.562671 23.587208-22.720468 9.322319-8.15268 20.687158-16.306384 34.084283-24.463158 14.562671-8.735965 28.102035-15.438621 40.627303-20.095687 12.521175-4.662183 23.156396-8.15882 31.896454-10.489912C469.774805 190.23799499999996 479.097124 189.068356 487.250828 189.068356L487.250828 189.068356 487.250828 189.068356zM712.686207 290.427858l-124.07997 71.6519c-2.90926-2.329045-5.533017-4.66116-7.860015-6.987135-2.331092-1.752924-4.955872-3.643993-7.865131-5.684466-2.913353-2.036379-5.824659-3.931542-8.734942-5.680373-3.496637-2.325975-7.139607-4.077875-10.92891-5.243421-3.781116-1.161453-7.130398-2.325975-10.047844-3.492544-3.491521-1.165546-6.698562-2.040473-9.607822-2.619664l0-143.304823c9.318226 0.583285 19.222807 2.046612 29.707602 4.371564 9.322319 1.744737 19.953448 4.65809 31.896454 8.736988 11.943007 4.077875 24.610514 9.905604 38.007639 17.476023 15.145955 8.15268 27.671223 16.45681 37.57171 24.899086 9.901511 8.451486 18.063401 16.168238 24.468275 23.156396C702.202435 275.288043 708.027094 282.85846200000003 712.686207 290.427858L712.686207 290.427858 712.686207 290.427858zM734.534817 535.959947l-124.07997-71.647807 1.747807-10.483772c0.582261-2.918469 1.01819-6.263657 1.311879-10.048867 0.288572-3.790326 0.431835-7.138584 0.431835-10.047844 0-4.078899-0.289596-8.157797-0.87288-12.232602-0.582261-4.082992-1.165546-7.574512-1.747807-10.487865-1.161453-3.496637-2.041496-6.993275-2.620687-10.484795l123.20402-70.77595c4.077875 8.153704 7.860015 17.47193 11.359722 27.958772 2.910283 8.736988 5.676279 19.37221 8.300037 31.888268 2.620687 12.526291 3.932566 26.363438 3.932566 41.508369 0 16.892739-1.019213 32.03767-3.055592 45.434795-2.041496 13.397125-4.514827 24.469298-7.42818 33.20424C742.104213 520.235824 738.608599 528.971789 734.534817 535.959947L734.534817 535.959947 734.534817 535.959947zM534.434453 676.644083L534.434453 532.467403l10.488889-3.496637c2.90926-1.164522 5.968945-2.477424 9.175987-3.931542 3.196809-1.455141 6.257517-3.060709 9.171893-4.808516 2.912329-2.330068 5.973038-4.510734 9.175987-6.551206 3.207042-2.037403 5.974062-4.226255 8.300037-6.55223l7.864108-7.864108 123.202996 71.6519c-5.243421 7.570419-11.359722 15.434527-18.34788 23.588231-6.40999 6.992251-14.273075 14.710027-23.592324 23.156396-9.322319 8.447393-20.678972 16.746406-34.076096 24.90011-15.150048 8.740058-28.982078 15.292288-41.508369 19.663852-12.525268 4.368494-23.156396 7.720845-31.896454 10.047844C551.9115 674.601564 542.587134 676.061822 534.434453 676.644083L534.434453 676.644083 534.434453 676.644083zM534.434453 676.644083"  horiz-adv-x="1024" />

    
    <glyph glyph-name="location" unicode="&#62993;" d="M141.423987-64.59185500000001L141.423987 559.535899l78.015841 0L219.439828 676.560172l97.520057 0L316.959885 832.591855l39.008432 0 0-156.031683 97.520057 0 0-117.024274 78.015841 0 0-234.047524 136.526443 0L668.030659 442.513672l117.02632 0 0 58.511625 39.008432 0 0-58.511625 58.511625 0 0-507.105526L141.423987-64.59185500000001zM414.477896 637.55174L258.44826 637.55174l0-78.015841 156.029636 0L414.477896 637.55174zM492.495784 520.5284899999999L180.431396 520.5284899999999l0-546.109866 312.064388 0L492.495784 520.5284899999999zM668.029636 286.481989L531.504216 286.481989l0-78.017888 136.526443 0L668.030659 286.481989zM668.029636 169.45669199999998L531.504216 169.45669199999998l0-78.015841 136.526443 0L668.030659 169.45669199999998zM668.029636 52.43241899999998L531.504216 52.43241899999998l0-78.013795 136.526443 0L668.030659 52.43241899999998zM843.567581 403.504216L707.040115 403.504216l0-78.015841 136.52849 0L843.568604 403.504216zM843.567581 286.481989L707.040115 286.481989l0-78.017888 136.52849 0L843.568604 286.481989zM843.567581 169.45669199999998L707.040115 169.45669199999998l0-78.015841 136.52849 0L843.568604 169.45669199999998zM843.567581 52.43241899999998L707.040115 52.43241899999998l0-78.013795 136.52849 0L843.568604 52.43241899999998zM297.455669 384.002047l-58.511625 0 0 58.511625 58.511625 0L297.455669 384.002047zM297.455669 266.975726l-58.511625 0 0 58.511625 58.511625 0L297.455669 266.975726zM297.455669 149.95247600000005l-58.511625 0 0 58.511625 58.511625 0L297.455669 149.95247600000005zM297.455669 32.92820300000005l-58.511625 0 0 58.511625 58.511625 0L297.455669 32.92820300000005zM433.984159 384.002047l-58.511625 0 0 58.511625 58.511625 0L433.984159 384.002047zM433.984159 266.975726l-58.511625 0 0 58.511625 58.511625 0L433.984159 266.975726zM433.984159 149.95247600000005l-58.511625 0 0 58.511625 58.511625 0L433.984159 149.95247600000005zM433.984159 32.92820300000005l-58.511625 0 0 58.511625 58.511625 0L433.984159 32.92820300000005z"  horiz-adv-x="1024" />

    
    <glyph glyph-name="approval1" unicode="&#63234;" d="M499.27112 882.885308c118.816083 0 237.633189-0.054235 356.450295 0.049119 21.808702 0.01842 42.965557-2.982938 62.61406-12.773931 51.136657-25.481348 78.178547-67.141166 79.207993-124.085086 1.098008-60.759829 0.314155-121.556497 0.209778-182.336792-0.027629-16.563234-8.994861-29.326932-23.312962-34.128285-13.885242-4.65809-29.346375-0.418532-37.784558 11.686157-3.565199 5.113461-5.088902 11.777231-6.918573 17.921161-0.870834 2.926656-0.350994 6.287193-0.352017 9.450233-0.014326 58.247612 0.066515 116.496248-0.039909 174.74386-0.063445 33.890878-20.249183 60.888765-51.578726 68.819388-6.049786 1.530866-12.506848 2.043542-18.776645 2.045589-240.165872 0.099261-480.331743 0.11768-720.498638 0.052189-40.545438-0.011256-70.018703-29.438473-70.028936-69.867254-0.059352-240.165872-0.055259-480.33072-0.004093-720.495568 0.00921-41.006949 29.465079-70.072939 71.072709-70.1415 70.065775-0.118704 140.131551-0.086981 210.197326 0.007163 13.941524 0.01842 25.916253-3.806699 33.719986-16.09149 13.555737-21.333888 0.37453-48.774867-24.850991-52.014654-2.711761-0.348947-5.457292-0.61296-8.187473-0.61296-70.2776-0.034792-140.5552-0.102331-210.830753 0.004093-37.216623 0.057305-70.007447 12.027941-97.052406 37.95238-26.270317 25.182542-40.345893 56.168254-42.24822 92.579535-0.187265 3.580548-0.181125 7.172353-0.181125 10.761088-0.008186 238.477416 0.074701 476.954833-0.097214 715.433272-0.025583 35.186384 9.945513 66.569138 33.025161 93.204775C61.392258 867.784378 97.707348 882.997871 140.920546 882.940566 260.370055 882.780931 379.820587 882.884284 499.27112 882.885308zM1029.124743 334.874139c-0.084934-31.397081-8.629541-53.381791-26.445302-71.210855-95.596242-95.66071-191.573153-190.94075-286.925848-286.84296-25.732058-25.882484-55.04364-44.968168-89.948615-55.349609-25.615401-7.616468-51.099818-15.902178-77.086679-21.988804-32.221866-7.54586-62.762439 6.504134-76.592422 33.138748-7.379061 14.20963-9.318226 29.566386-6.52767 44.936445 6.975878 38.441521 18.559705 75.629491 33.202193 111.833041 6.910387 17.08512 18.08796 31.296797 31.019481 44.245713 77.524654 77.638241 155.493423 154.839531 232.228085 233.248322 22.208814 22.695908 45.947472 43.576471 68.794829 65.488527 36.979216 35.462676 90.862427 35.329646 130.615826 8.582469 27.876907-18.758226 49.009204-43.964304 60.783365-75.778894C1026.4928 353.687624 1027.766816 341.09891100000004 1029.124743 334.874139zM800.208077 331.72849599999995c-0.390903-0.355087-1.667989-1.417279-2.837628-2.586918-72.912613-72.992431-145.833413-145.976676-218.693838-219.022319-7.742335-7.760754-15.629979-15.46932-22.557762-23.934109-11.031241-13.478989-16.259312-29.895891-20.921495-46.335305-6.545066-23.068392-13.551644-46.076408-18.500353-69.50091-3.505847-16.590863 5.104251-23.705911 21.914102-20.891819 0.828878 0.13917 1.64036 0.396019 2.447748 0.635473 25.810852 7.692193 51.699476 15.136745 77.407997 23.159466 21.959128 6.856152 40.352033 19.408025 56.591903 35.744086 74.073042 74.516134 148.411121 148.768255 222.641753 223.125777 0.557702 0.557702 0.946558 1.286296 1.489934 2.041496C866.135602 266.74241300000006 833.278263 299.13210000000004 800.208077 331.72849599999995zM841.45755 372.88484800000003c33.202193-33.20424 65.781192-65.783239 100.438527-100.441597 5.816472 6.745634 11.410887 14.950504 18.642592 21.295002 20.133549 17.665335 21.734 39.923268 9.697873 62.86784-8.66945 16.524348-20.827351 30.41573-36.087916 40.872896-20.533662 14.07046-44.682665 16.260335-63.557548 1.288343C860.218845 390.53995 850.73689 381.188978 841.45755 372.88484800000003zM492.007693 692.634266c80.803327-0.001023 161.606655 0.01535 242.408959-0.013303 17.591657-0.00614 30.193673-8.100492 35.275411-22.443152 7.538697-21.288862-6.611581-43.431162-29.228695-45.675272-2.302439-0.229221-4.634554-0.214894-6.953366-0.214894-160.762427-0.010233-321.524854-0.014326-482.287281-0.004093-20.074198 0.001023-33.535791 9.797134-37.464263 27.158547-4.500501 19.890003 10.44898 39.902802 30.782074 40.993646 6.312776 0.337691 12.653181 0.191358 18.98233 0.192382C339.684472 692.638359 415.847105 692.634266 492.007693 692.634266zM416.18275 442.787918c-55.259558 0.001023-110.518093-0.040932-165.776627 0.024559-17.892509 0.022513-30.084179 7.890714-35.265178 22.364357-7.40362 20.688181 5.301749 42.049698 27.075659 45.391816 3.109828 0.476861 6.294356 0.654916 9.444093 0.656963 109.884666 0.031722 219.770356 0.035816 329.655022 0.019443 19.59222-0.002047 32.747845-9.18008 37.281091-25.870204 5.417383-19.945261-9.102309-40.873919-29.695323-42.173518-10.507308-0.662079-21.078061-0.39295-31.619138-0.401136C510.249149 442.766428 463.215949 442.785871 416.18275 442.787918zM343.717321 316.989817c30.782074-0.001023 61.565171 0.095167 92.348268-0.036839 19.577894-0.082888 33.04665-10.29753 36.609803-27.317159 4.609994-22.01541-11.835559-41.016159-36.055171-41.151235-34.787294-0.193405-69.577658-0.052189-104.366999-0.053212-27.408233 0-54.819536-0.092098-82.22777 0.035816-18.832927 0.088004-32.021298 9.937326-36.072567 26.53433-4.89038 20.029172 9.211802 40.623209 29.849842 41.357943 28.426423 1.01205 56.908104 0.49835 85.365226 0.630357C334.016379 317.011306 338.86685 316.99084000000005 343.717321 316.989817z"  horiz-adv-x="1030" />

    
    <glyph glyph-name="rocket" unicode="&#63449;" d="M838.656 128.38400000000001l0-17.344-201.344 40.576c-12.992-43.456-65.152-76.736-125.952-76.736-60.864 0-113.024 33.344-126.016 78.208l-199.872-39.104 0 17.344c0 98.496 27.52 169.472 89.728 228.864C253.44 641.152 379.456 819.264 504 891.712L511.296 896l7.232-4.288c124.608-72.448 249.088-250.56 228.864-531.584C811.136 300.736 838.656 229.76 838.656 128.38400000000001zM574.976 478.848c37.632 34.752 40.512 94.144 5.76 131.84C545.984 648.3199999999999 486.656 651.264 448.96 616.512c-37.632-34.752-40.512-94.208-5.76-131.84C477.952 446.976 537.344 444.096 574.976 478.848zM558.4-20.799999999999955C558.4-62.78399999999999 512-128 512-128s-46.336 69.568-46.336 107.2c0 31.872 20.224 57.92 46.336 57.92S558.4 11.072000000000003 558.4-20.799999999999955z"  horiz-adv-x="1024" />

    
    <glyph glyph-name="project" unicode="&#63004;" d="M775 359.79999999999995L456.8 359.79999999999995c-26 0-47 21-47 47 0 26 21 47 47 47l318.2 0c26 0 47-21 47-47C822 380.79999999999995 800.8 359.79999999999995 775 359.79999999999995L775 359.79999999999995zM775 173.79999999999995L456.8 173.79999999999995c-26 0-47 21-47 47s21 47 47 47l318.2 0c26 0 47-21 47-47S800.8 173.79999999999995 775 173.79999999999995L775 173.79999999999995zM991 20.200000000000045L991 614.6c0 72.2-65.8 65.4-65.8 65.4s-392.8-0.4-371.8 0c-22.4-0.4-33.8 11.8-33.8 11.8s-15.6 27-43.8 69.4c-29.4 44.6-63.6 37.4-63.6 37.4L123 798.6C42.8 798.6 42 721.4 42 721.4L42 24c0-86 65-75.4 65-75.4l824.2 0C1000.8-51.39999999999998 991 20.200000000000045 991 20.200000000000045L991 20.200000000000045zM932 55.39999999999998c0-26.6-21.4-48-48-48L149 7.399999999999977c-26.6 0-48 21.4-48 48L101 553c0 26.6 21.4 48 48 48L884 601c26.6 0 48-21.4 48-48L932 55.39999999999998 932 55.39999999999998zM282.2 406.8m-50.2 0a25.1 25.1 0 1 1 100.4 0 25.1 25.1 0 1 1-100.4 0ZM282.2 220.79999999999995m-50.2 0a25.1 25.1 0 1 1 100.4 0 25.1 25.1 0 1 1-100.4 0Z"  horiz-adv-x="1024" />

    
    <glyph glyph-name="alert" unicode="&#62977;" d="M882.019847 177.85087299999998c-22.535249 27.047006-52.565193 49.116651-66.459644 77.371158-16.568351 33.710776-28.448936 68.970838-33.726126 113.082498-9.260921 77.371158-8.974395 171.528632-27.774577 286.672068-7.93574 48.604998-28.092825 97.504708-124.644835 133.215024 0 0-18.040888 69.621661-43.985794 84.020602-11.904121 6.618744-81.332377 7.610328-95.885837 1.333368-30.067806-12.972453-41.661865-32.408107-45.288462-84.020602 0 0-126.968763-39.694047-138.871861-153.426345-8.749268-83.58672 7.578606-211.160257-42.002626-334.579171-17.886369-44.544519-48.77589-90.639347-86.291318-130.967844-15.297404-16.443507-29.092595-87.291089 21.164019-87.291089 50.255591 0 499.265978-3.611248 683.775248 0C906.183176 83.72409900000002 913.893788 139.59968700000002 882.019847 177.85087299999998zM530.220479 692.964794c-64.809051-18.505469-91.258447-88.608084-97.869005-126.968763-6.610558-38.34533-27.774577-33.059953-50.263777-19.838837-22.4892 13.236466-13.220093 70.102614-13.220093 70.102614C420.447353 745.863584 539.480376 747.196952 539.480376 747.196952 585.776795 711.486636 530.220479 692.964794 530.220479 692.964794zM406.560064 19.108452000000057l247.985978 0c0 0-49.938366-133.540436-128.635729-132.88859C470.300784-113.31555600000002 449.663768-84.00704299999995 406.560064 19.108452000000057z"  horiz-adv-x="1024" />

    
    <glyph glyph-name="mysql" unicode="&#63131;" d="M880.697 158.44500000000005c-47.588 1.195-84.475-3.572-115.409-16.653-8.925-3.573-23.203-3.573-24.393-14.876 4.762-4.762 5.357-12.492 9.523-19.037 7.136-11.898 19.628-27.962 30.935-36.29 12.492-9.513 24.988-19.033 38.069-27.362 23.206-14.281 49.383-22.604 71.988-36.885 13.087-8.325 26.173-19.036 39.259-27.962 6.546-4.756 10.707-12.491 19.037-15.465v1.785c-4.166 5.357-5.357 13.091-9.52 19.037-5.945 5.952-11.897 11.308-17.842 17.253-17.253 23.199-38.67 43.425-61.874 60.086-19.036 13.087-60.679 30.934-68.409 52.944 0 0-0.601 0.595-1.19 1.19 13.087 1.189 28.551 5.946 41.049 9.519 20.223 5.353 38.67 4.162 59.491 9.52 9.513 2.379 19.033 5.351 28.551 8.33v5.351c-10.707 10.707-18.438 24.983-29.745 35.097-30.334 26.178-63.652 51.761-98.155 73.171-18.444 11.902-42.243 19.637-61.869 29.745-7.139 3.573-19.043 5.357-23.199 11.308-10.713 13.087-16.657 30.334-24.393 45.806-17.249 32.722-33.913 69.007-48.783 103.511-10.707 23.203-17.249 46.404-30.334 67.821-61.28 101.133-127.904 162.403-230.228 222.494-22.017 12.492-48.19 17.847-76.15 24.388-14.87 0.595-29.741 1.785-44.614 2.38-9.52 4.165-19.037 15.47-27.367 20.821-33.908 21.417-121.355 67.822-146.343 6.546-16.064-38.67 23.794-76.738 37.479-96.375 10.114-13.682 23.199-29.147 30.34-44.615 4.162-10.108 5.353-20.821 9.52-31.529 9.513-26.173 18.437-55.323 30.934-79.717 6.541-12.492 13.682-25.579 22.011-36.88 4.757-6.546 13.084-9.519 14.87-20.226-8.329-11.898-8.925-29.745-13.685-44.62-21.412-67.221-13.081-150.507 17.253-199.884 9.519-14.87 32.129-47.595 62.464-35.097 26.772 10.707 20.822 44.615 28.556 74.362 1.785 7.139 0.595 11.897 4.162 16.653v-1.189c8.334-16.654 16.658-32.718 24.393-49.377 18.444-29.147 50.567-59.487 77.334-79.717 14.282-10.703 25.583-29.147 43.43-35.692v1.789h-1.189c-3.573 5.353-8.925 7.731-13.682 11.898-10.711 10.707-22.61 23.794-30.939 35.69-24.983 33.314-46.995 70.198-66.627 108.273-9.519 18.444-17.847 38.67-25.579 57.107-3.572 7.139-3.572 17.847-9.523 21.417-8.925-13.087-22.004-24.388-28.551-40.453-11.301-25.579-12.492-57.106-16.659-89.826-2.384-0.599-1.19 0-2.384-1.189-19.033 4.756-25.579 24.388-32.718 41.049-17.844 42.236-20.822 110.058-5.353 158.835 4.166 12.491 22.016 51.757 14.876 63.652-3.572 11.301-15.47 17.847-22.011 26.772-7.735 11.302-16.064 25.579-21.417 38.075-14.282 33.31-21.421 70.194-36.885 103.511-7.139 15.465-19.632 31.53-29.745 45.805-11.301 16.06-23.794 27.367-32.718 46.405-2.973 6.541-7.139 17.249-2.379 24.388 1.189 4.757 3.568 6.541 8.33 7.735 7.73 6.546 29.744-1.785 37.475-5.353 22.011-8.925 40.453-17.253 58.896-29.745 8.325-5.951 17.249-17.253 27.957-20.226h12.496c19.037-4.166 40.453-1.194 58.297-6.546 31.529-10.114 60.086-24.985 85.669-41.049 77.929-49.377 142.177-119.575 185.606-203.456 7.135-13.682 10.108-26.178 16.658-40.453 12.487-29.152 27.957-58.896 40.448-87.447 12.492-27.962 24.389-56.517 42.237-79.722 8.925-12.487 44.615-19.033 60.679-25.579 11.898-5.353 30.34-10.114 41.049-16.654 20.227-12.492 40.453-26.773 59.491-40.453 9.519-7.139 39.265-22.015 41.049-33.913v0 0zM880.697 158.44500000000005z"  horiz-adv-x="1024" />

    
    <glyph glyph-name="volume" unicode="&#63164;" d="M96 672a208 64 0 1 1 832 0 208 64 0 1 1-832 0ZM928 480c0-70.6-186.2-128-416-128S96 409.2 96 480l0 160c0-70.6 186.2-128 416-128s416 57.4 416 128L928 480zM928 288c0-70.6-186.2-128-416-128S96 217.20000000000005 96 288l0 160c0-70.6 186.2-128 416-128s416 57.4 416 128L928 288zM928 96c0-70.6-186.2-128-416-128S96 25.200000000000045 96 96l0 160c0-70.6 186.2-128 416-128s416 57.4 416 128L928 96z"  horiz-adv-x="1024" />

    
    <glyph glyph-name="apps" unicode="&#62976;" d="M557.090964 832.443475l0-403.402653 403.402653 0L960.493617 832.443475 557.090964 832.443475zM915.670759 473.86368L601.913822 473.86368 601.913822 787.620617l313.756937 0L915.670759 473.86368zM64.044642 339.396129l0-403.402653 403.402653 0L467.447295 339.396129 64.044642 339.396129zM422.624437-19.18366500000002L108.866477-19.18366500000002 108.866477 294.573271l313.756937 0L422.623413-19.18366500000002zM557.090964 339.396129l0-403.402653 403.402653 0L960.493617 339.396129 557.090964 339.396129zM915.670759-19.18366500000002L601.913822-19.18366500000002 601.913822 294.573271l313.756937 0L915.670759-19.18366500000002zM64.044642 832.443475l0-403.402653 403.402653 0L467.447295 832.443475 64.044642 832.443475zM422.624437 473.86368L108.866477 473.86368 108.866477 787.620617l313.756937 0L422.623413 473.86368z"  horiz-adv-x="1024" />

    
    <glyph glyph-name="members" unicode="&#63134;" d="M326.656241 389.12C157.559772 389.12 20.48 252.04022799999996 20.48 82.943759L20.48-25.600000000000023C20.48-42.56618500000002 34.233812-56.32000000000005 51.2-56.32000000000005 68.166188-56.32000000000005 81.92-42.56618500000002 81.92-25.600000000000023L81.92 82.943759C81.92 218.10785299999998 191.492147 327.67999999999995 326.656241 327.67999999999995 370.302927 327.67999999999995 412.21173 316.266307 449.117334 294.890721 463.798734 286.38731299999995 482.593737 291.39556400000004 491.097148 306.076964 499.600559 320.75836400000003 494.592309 339.553367 479.910909 348.056776 433.709435 374.816497 381.189814 389.12 326.656241 389.12ZM295.905882 773.12C186.207837 773.12 97.28 684.1921629999999 97.28 574.4941180000001 97.28 464.796072 186.207837 375.868237 295.905882 375.868237 405.603928 375.868237 494.531765 464.796072 494.531765 574.4941180000001 494.531765 684.1921629999999 405.603928 773.12 295.905882 773.12L295.905882 773.12 295.905882 773.12ZM295.905882 437.308235C220.140212 437.308235 158.72 498.728447 158.72 574.4941180000001 158.72 650.259788 220.140212 711.6800000000001 295.905882 711.6800000000001 371.671553 711.6800000000001 433.091765 650.259788 433.091765 574.4941180000001 433.091765 498.728447 371.671553 437.308235 295.905882 437.308235L295.905882 437.308235 295.905882 437.308235ZM479.021423 47.98560299999997L479.021423-97.07446800000002C479.021423-114.15416800000003 465.17559-128 448.095891-128 431.016191-128 417.170359-114.15416800000003 417.170359-97.07446800000002L417.170359 47.98560299999997C417.170359 212.25015299999995 523.536666 352.52691500000003 673.241344 408.824456 675.011809 409.89428 676.916659 410.801462 678.943007 411.518997 723.003448 427.120935 769.79052 435.2 817.684659 435.2 867.146312 435.2 913.933384 427.120935 957.993825 411.518997 960.020173 410.801462 961.925018 409.89428 963.695488 408.824456 1113.400166 352.52691500000003 1219.766472 212.25015299999995 1219.766472 47.98560299999997L1219.766472-97.07446800000002C1219.766472-114.15416800000003 1205.92064-128 1188.84094-128 1171.761239-128 1157.915407-114.15416800000003 1157.915407-97.07446800000002L1157.915407 47.98560299999997C1157.915407 226.956549 1006.128348 372.94253100000003 818.468618 373.34809099999995 630.808484 372.94253100000003 479.021423 226.956549 479.021423 47.98560299999997ZM635.611428 640C635.611428 532.5474790000001 722.718909 445.44 830.171428 445.44 937.623951 445.44 1024.731428 532.5474790000001 1024.731428 640 1024.731428 747.4525209999999 937.623951 834.56 830.171428 834.56 722.718909 834.56 635.611428 747.4525209999999 635.611428 640L635.611428 640 635.611428 640ZM1086.171428 640C1086.171428 498.615104 971.556326 384 830.171428 384 688.786534 384 574.171428 498.615104 574.171428 640 574.171428 781.384896 688.786534 896 830.171428 896 971.556326 896 1086.171428 781.384896 1086.171428 640L1086.171428 640 1086.171428 640Z"  horiz-adv-x="1229" />

    
    <glyph glyph-name="app" unicode="&#62980;" d="M414.354286 896H61.074286A61.129143 61.129143 0 0 1 0 834.925714v-353.28A61.129143 61.129143 0 0 1 61.074286 420.571429h353.28A61.129143 61.129143 0 0 1 475.428571 481.645714V834.925714A61.129143 61.129143 0 0 1 414.354286 896zM438.857143 481.645714c0-13.513143-10.989714-24.502857-24.502857-24.502857H61.074286C47.561143 457.142857 36.571429 468.132571 36.571429 481.645714V834.925714C36.571429 848.438857 47.561143 859.428571 61.074286 859.428571h353.28c13.513143 0 24.502857-10.989714 24.502857-24.502857v-353.28zM962.925714 896H609.645714A61.129143 61.129143 0 0 1 548.571429 834.925714v-353.28A61.129143 61.129143 0 0 1 609.645714 420.571429h353.28A61.129143 61.129143 0 0 1 1024 481.645714V834.925714A61.129143 61.129143 0 0 1 962.925714 896zM987.428571 481.645714c0-13.513143-10.989714-24.502857-24.502857-24.502857H609.645714c-13.513143 0-24.502857 10.989714-24.502857 24.502857V834.925714c0 13.513143 10.989714 24.502857 24.502857 24.502857h353.28c13.513143 0 24.502857-10.989714 24.502857-24.502857v-353.28zM414.354286 347.42857100000003H61.074286A61.129143 61.129143 0 0 1 0 286.354286v-353.28A61.129143 61.129143 0 0 1 61.074286-128h353.28A61.129143 61.129143 0 0 1 475.428571-66.92571399999997V286.354286A61.129143 61.129143 0 0 1 414.354286 347.42857100000003zM438.857143-66.92571399999997c0-13.513143-10.989714-24.502857-24.502857-24.502857H61.074286C47.561143-91.42857100000003 36.571429-80.43885699999998 36.571429-66.92571399999997V286.354286c0 13.513143 10.989714 24.502857 24.502857 24.502857h353.28c13.513143 0 24.502857-10.989714 24.502857-24.502857v-353.28zM1005.714286 128H804.571429V329.14285700000005a18.285714 18.285714 0 1 1-36.571429 0v-201.142857H566.857143a18.285714 18.285714 0 1 1 0-36.571429h201.142857v-201.142857a18.285714 18.285714 0 1 1 36.571429 0V91.42857100000003h201.142857a18.285714 18.285714 0 1 1 0 36.571429z"  horiz-adv-x="1024" />

    
    <glyph glyph-name="SubmitReview" unicode="&#63028;" d="M105.609 344.192h61.746V720.433c0 21.389 8.676 40.38 22.61 54.559 13.718 13.934 33.662 22.856 54.567 22.856h535.16c21.411 0 40.387-8.922 54.321-22.856l1.705-1.199c12.981-13.934 20.905-32.925 20.905-53.36v-376.241h62.037c18.752 0 33.885-15.647 33.885-33.908V1.6130000000000564c0-18.775-15.133-33.908-33.885-33.908H105.609c-18.529 0-34.154 15.133-34.154 33.908V310.284c0 18.261 15.625 33.908 34.154 33.908z m102.647 0h96.168c17.769 0 31.972-13.718 33.394-31.487 7.455-41.363 28.844-77.661 59.862-103.868 30.534-26.2 70.43-42.316 114.436-42.316 43.53 0 83.671 16.116 114.913 42.316 31.264 26.446 52.899 64.435 59.624 106.505 2.659 16.846 17.308 28.605 33.662 28.605v0.246h95.922v376.24c0 9.629-3.619 18.261-9.875 25.001l-1.177 0.715C798.683 752.896 790.03 757 779.693 757h-535.16c-9.831 0-18.976-4.104-25.716-10.851-6.725-6.502-10.56-15.625-10.56-25.716v-376.241h-0.001z m68.739-68.054H139.487V35.75999999999999h745.027V276.13800000000003h-137.53c-13.465-46.62-40.365-87.737-76.44-118.763-42.562-36.522-98.097-58.641-158.428-58.641-60.339 0-115.873 22.119-158.413 58.641-35.837 31.026-63.258 72.143-76.708 118.763z m18.075 220.496l0.466 0.496 201.155 200.907c7.997 8.238 21.121 8.238 29.111 0l201.644-201.403c7.997-8.261 7.997-21.114 0-29.134-4.142-4.119-9.223-5.803-14.574-5.803h-98.248V316.6c0-11.666-8.982-20.873-20.625-20.873H428.517c-11.147 0-20.377 9.208-20.377 20.873V461.698h-98.759c-11.154 0-20.159 8.96-20.159 20.114 0 5.848 2.443 10.703 5.848 14.822z m216.421 157.959L359.118 502.437h69.4c11.402 0 20.362-9.208 20.362-20.625v-145.098h124.495V481.812c0 11.418 9.471 20.625 20.625 20.625h69.384L511.491 654.593z"  horiz-adv-x="1024" />

    
    <glyph glyph-name="security" unicode="&#63632;" d="M512 384h298.666667c-22.613333-175.36-139.946667-331.946667-298.666667-380.586667V384H213.333333V627.2l298.666667 132.693333M512 853.333333L128 682.666667v-256c0-236.8 163.84-457.813333 384-512 220.16 54.186667 384 275.2 384 512V682.666667l-384 170.666666z"  horiz-adv-x="1024" />

    
    <glyph glyph-name="logging" unicode="&#63329;" d="M910.222222-71.11111100000005H113.777778V839.111111h796.444444v-910.222222zM853.333333 782.222222H170.666667v-796.444444h682.666666V782.222222zM341.333333 668.444444H227.555556v-113.777777h113.777777V668.444444z m0-227.555555H227.555556v-113.777778h113.777777V440.888889z m0-227.555556H227.555556v-113.777777h113.777777v113.777777z m455.111111 398.222223H398.222222v-56.888889h398.222222V611.555556z m0-227.555556H398.222222v-56.888889h398.222222V384z m0-227.555556H398.222222v-56.888888h398.222222v56.888888z"  horiz-adv-x="1024" />

    
    <glyph glyph-name="setting" unicode="&#62982;" d="M896 256a128 128 0 0 1 0 256H873.813333a381.064533 381.064533 0 0 1-15.428266 37.410133l15.633066 15.633067a128 128 0 0 1-180.974933 180.974933l-15.633067-15.633066a374.306133 374.306133 0 0 1-37.410133 15.428266v22.186667a128 128 0 0 1-256 0V745.8133330000001a374.306133 374.306133 0 0 1-37.410133-15.428266l-15.633067 15.633066a128 128 0 0 1-180.974933-180.974933l15.633066-15.633067a391.168 391.168 0 0 1-15.428266-37.410133h-22.186667a128 128 0 0 1 0-256H150.186667a391.168 391.168 0 0 1 15.428266-37.410133l-15.633066-15.633067a128 128 0 0 1 180.974933-180.974933l15.633067 15.633066a374.306133 374.306133 0 0 1 37.410133-15.428266v-22.186667a128 128 0 0 1 256 0V22.186667000000057a374.306133 374.306133 0 0 1 37.410133 15.428266l15.633067-15.633066a128 128 0 0 1 180.974933 180.974933l-15.633066 15.701333a373.1456 373.1456 0 0 1 15.428266 37.341867h22.186667z m-67.242667-98.304a64.170667 64.170667 0 0 0 0-90.453333 65.7408 65.7408 0 0 0-90.453333 0l-49.288533 49.288533-21.162667-11.810133a319.146667 319.146667 0 0 0-68.266667-28.330667l-23.278933-6.826667v-69.768533a64.034133 64.034133 0 0 0-128.068267 0V69.97333300000003l-23.278933 6.826667a316.279467 316.279467 0 0 0-68.266667 28.330667l-21.162666 11.810133-49.288534-49.288533a65.7408 65.7408 0 0 0-90.453333 0 64.170667 64.170667 0 0 0 0 90.453333l49.220267 49.288533-11.810134 21.162667a318.6688 318.6688 0 0 0-28.2624 68.266667l-6.826666 23.210666H128.341333a64.034133 64.034133 0 0 0 0 128.068267H197.973333L204.8 471.381333a319.556267 319.556267 0 0 0 28.2624 68.266667l11.810133 21.162667-49.220266 49.288533a64.170667 64.170667 0 0 0 0 90.453333 65.7408 65.7408 0 0 0 90.453333 0l49.288533-49.220266 21.162667 11.810133a316.142933 316.142933 0 0 0 68.266667 28.2624l23.278933 6.826667V768a64.034133 64.034133 0 0 0 128.068267 0V698.026667l23.278933-6.826667a318.941867 318.941867 0 0 0 68.266667-28.2624l21.162666-11.810133 49.288534 49.220266a65.7408 65.7408 0 0 0 90.453333 0 64.170667 64.170667 0 0 0 0-90.453333l-49.220267-49.288533 11.741867-21.162667a317.166933 317.166933 0 0 0 28.330667-68.266667l6.826666-23.278933h69.768534a64.034133 64.034133 0 0 0 0-128.068267H826.026667l-6.826667-23.210666a317.713067 317.713067 0 0 0-28.330667-68.266667l-11.741866-21.162667zM512 576.034133A192.034133 192.034133 0 1 1 704.034133 384 192.170667 192.170667 0 0 1 512 576.034133z m0-320.034133A128 128 0 1 0 640 384 128.136533 128.136533 0 0 0 512 256z"  horiz-adv-x="1024" />

    
    <glyph glyph-name="area" unicode="&#63334;" d="M877.728 420.576v-73.152q0-114.848-56.288-206.848t-156.576-143.712-226.016-51.712-226.016 51.712-156.576 143.712-56.288 206.848v73.152q0 14.848 10.848 25.728t25.728 10.848h219.424q14.848 0 25.728-10.848t10.848-25.728v-73.152q0-29.728 13.44-51.424t30.56-32.576 40.576-17.152 36.576-7.424 25.152-1.152 25.152 1.152 36.576 7.424 40.576 17.152 30.56 32.576 13.44 51.424v73.152q0 14.848 10.848 25.728t25.728 10.848h219.424q14.848 0 25.728-10.848t10.848-25.728zM292.576 786.272v-219.424q0-14.848-10.848-25.728T256 530.2719999999999H36.576q-14.848 0-25.728 10.848T0 566.848V786.272q0 14.848 10.848 25.728t25.728 10.848H256q14.848 0 25.728-10.848t10.848-25.728z m585.152 0v-219.424q0-14.848-10.848-25.728t-25.728-10.848h-219.424q-14.848 0-25.728 10.848t-10.848 25.728V786.272q0 14.848 10.848 25.728t25.728 10.848h219.424q14.848 0 25.728-10.848t10.848-25.728z"  horiz-adv-x="1024" />

    
    <glyph glyph-name="node" unicode="&#63322;" d="M510.293333 894.293333C228.693333 894.293333 0 665.6 0 384s228.693333-510.293333 510.293333-510.293333S1020.586667 102.39999999999998 1020.586667 384C1022.293333 665.6 793.6 894.293333 510.293333 894.293333z m0-969.386666C256-75.09333300000003 51.2 131.41333299999997 51.2 384 51.2 638.2933330000001 257.706667 844.8 510.293333 844.8c254.293333 0 460.8-206.506667 460.8-460.8s-206.506667-459.093333-460.8-459.093333z m0 0M256 384c0-141.653333 114.346667-256 256-256s256 114.346667 256 256-114.346667 256-256 256-256-114.346667-256-256z m0 0"  horiz-adv-x="1024" />

    
    <glyph glyph-name="clusters" unicode="&#63450;" d="M637.866667 640l-108.8 64-8.533334 4.266667-8.533333-2.133334-108.8-64-130.133333 70.4-168.533334-98.133333v-192l168.533334-98.133333 4.266666-2.133334 61.866667 34.133334v87.466666l-46.933333 23.466667-78.933334-46.933333-53.333333 32v132.266666l119.466667 66.133334 72.533333-40.533334-68.266667-42.666666 91.733334-59.733334-27.733334-12.8v-202.666666l170.666667-98.133334 2.133333-2.133333h2.133334l174.933333 98.133333v202.666667l-27.733333 12.8 91.733333 59.733333-68.266667 42.666667 72.533334 40.533333 119.466666-66.133333v-132.266667L832 418.133333l-78.933333 46.933334-49.066667-23.466667v-87.466667l61.866667-34.133333 170.666666 100.266667v192L768 710.4 637.866667 640z m-251.733334-74.666667l134.4 85.333334 134.4-85.333334-134.4-83.2-134.4 83.2z m226.133334-87.466666l29.866666-17.066667v-134.4L520.533333 256l-119.466666 68.266667v134.4l29.866666 17.066666 91.733334-55.466666 89.6 57.6z m123.733333-78.933334l14.933333 8.533334 27.733334-17.066667-12.8-8.533333-29.866667 17.066666z m-473.6-8.533333l27.733333 17.066667 14.933334-8.533334-29.866667-17.066666-12.8 8.533333zM520.533333 829.866667l8.533334-4.266667 4.266666-2.133333 160-87.466667V682.666667L640 652.8V701.866667l-119.466667 70.4-119.466666-70.4v-51.2L347.733333 682.666667V736l172.8 93.866667z m324.266667-475.733334l38.4-25.6v-149.333333l-132.266667-78.933333-42.666666 21.333333v110.933333l-51.2 29.866667-96-55.466667v-61.866666l96-53.333334v-40.533333l-134.4-78.933333-134.4 78.933333v40.533333l96 53.333334v61.866666L384 264.53333299999997 332.8 234.66666699999996v-110.933334l-42.666667-21.333333-132.266666 78.933333v149.333334l38.4 25.6-55.466667 32-36.266667-29.866667v-211.2l183.466667-106.666667 44.8 23.466667v-36.266667l179.2-104.533333 8.533333-4.266667 8.533334 4.266667 174.933333 102.4 2.133333 2.133333V64l44.8-23.466667 183.466667 106.666667v211.2l-36.266667 29.866667-53.333333-34.133334z m-230.4-177.066666v55.466666l42.666667-25.6v-53.333333l-42.666667 23.466667z m-228.266667 29.866666l42.666667 25.6v-55.466666l-42.666667-21.333334v51.2z"  horiz-adv-x="1024" />

    
    <glyph glyph-name="RabbitMQ" unicode="&#63136;" d="M192 768h-128v-768h896V512h-384V768h-128v-256h-256V768zM384 576v256h256v-256h384v-640H0V832h256v-256h128zM640 320v-128h128v128H640zM576 384h256v-256h-256V384z"  horiz-adv-x="1024" />

    
    <glyph glyph-name="resource" unicode="&#62978;" d="M1149.08235273 493.69411729C1110.43529453 687.72352911 945.04705908 834 743.76470547 834 583.88235273 834 445.97058818 741.19411729 377.04117636 606.19411729 211.6 589.30588271 82 445.88823545 82 271.5 82 85.88823545000002 230.9235291-66 412.88235273-66h716.92941182C1281.43529453-66 1405.52941182 60.52941181999995 1405.52941182 215.22352910999996c0 149.08235273-113.02941182 270-256.44705909 278.47058818zM1132.88235273 39.88235272999998H410.23529453C287.94117636 39.88235272999998 187.88235273 143.11764727000002 187.88235273 269.27647090000005c0 126.21176455 100.05882363 229.44705908 222.3529418 229.4470582h38.91176455C485.30588271 630.6 602.04117637 728.11764727 743.76470547 728.11764727c169.51764727 0 305.73529453-140.50588271 305.73529453-315.42352998V384h83.38235273c91.69411729 0 166.76470547-77.45294092 166.76470635-172.05882363S1224.5764709 39.88235272999998 1132.88235273 39.88235272999998z"  horiz-adv-x="1505" />

    
    <glyph glyph-name="cluster" unicode="&#63003;" d="M322.133333 136.53333299999997H204.8c-89.6 0-162.133333 74.666667-162.133333 164.266667 0 70.4 44.8 132.266667 108.8 155.733333 0 8.533333-2.133333 19.2-2.133334 27.733334 0 74.666667 59.733333 136.533333 134.4 136.533333 32 0 61.866667-10.666667 85.333334-32 34.133333 87.466667 115.2 142.933333 206.933333 142.933333 91.733333 0 172.8-55.466667 206.933333-142.933333 2.133333-6.4 0-10.666667-6.4-12.8-6.4-2.133333-10.666667 0-12.8 6.4-29.866667 78.933333-104.533333 130.133333-187.733333 130.133333-87.466667 0-164.266667-57.6-192-145.066666-2.133333-4.266667-4.266667-6.4-8.533333-6.4s-8.533333 0-10.666667 2.133333c-21.333333 23.466667-51.2 36.266667-81.066667 36.266667-61.866667 0-113.066667-51.2-113.066666-115.2 0-10.666667 2.133333-19.2 4.266666-32v-8.533334c-2.133333-2.133333-4.266667-4.266667-6.4-4.266666C106.666667 422.4 64 364.79999999999995 64 300.79999999999995c0-78.933333 64-142.933333 140.8-142.933333h117.333333c6.4 0 10.666667-4.266667 10.666667-10.666667s-4.266667-10.666667-10.666667-10.666667zM593.066667 136.53333299999997h-53.333334c-6.4 0-10.666667 4.266667-10.666666 10.666667s4.266667 10.666667 10.666666 10.666667h53.333334c6.4 0 10.666667-4.266667 10.666666-10.666667s-4.266667-10.666667-10.666666-10.666667zM949.333333 27.733333000000016H452.266667c-17.066667 0-32 14.933333-32 32v194.133334c0 6.4 4.266667 10.666667 10.666666 10.666666h539.733334c6.4 0 10.666667-4.266667 10.666666-10.666666v-194.133334c0-17.066667-14.933333-32-32-32zM441.6 243.20000000000005v-183.466667c0-6.4 4.266667-10.666667 10.666667-10.666666h497.066666c6.4 0 10.666667 4.266667 10.666667 10.666666v183.466667H441.6zM593.066667 352h-53.333334c-6.4 0-10.666667 4.266667-10.666666 10.666667s4.266667 10.666667 10.666666 10.666666h53.333334c6.4 0 10.666667-4.266667 10.666666-10.666666s-4.266667-10.666667-10.666666-10.666667zM970.666667 243.20000000000005H430.933333c-6.4 0-10.666667 4.266667-10.666666 10.666667V448c0 17.066667 14.933333 32 32 32h497.066666c17.066667 0 32-14.933333 32-32v-194.133333c0-6.4-4.266667-10.666667-10.666666-10.666667z m-529.066667 21.333333H960V448c0 6.4-4.266667 10.666667-10.666667 10.666667H452.266667c-6.4 0-10.666667-4.266667-10.666667-10.666667v-183.466667z"  horiz-adv-x="1024" />

    
    <glyph glyph-name="storage-setting" unicode="&#63197;" d="M911.56 314.379s-50.365-51.352-55.303-56.29-22.713-4.937-22.713-4.937-46.414 4.937-52.34 11.85c-6.912 6.913-10.862 55.302-10.862 55.302s-0.988 13.825 4.937 20.738l56.29 56.29s5.925 6.912-2.963 6.912c-29.626 0-89.865-0.987-118.504-29.626l-5.925-5.925c-34.564-34.564-36.539-86.903-8.888-124.43l-170.843-156.03c-13.826-13.825-31.602-50.364 0-81.965 31.6-31.601 68.14-13.826 81.965 0 0 0 111.591 122.454 120.48 133.317 9.875 10.863 4.937 21.726 4.937 21.726s-19.75 27.65-29.626 44.439c-5.925 8.888-2.963 9.875 4.938 4.938 22.713-14.813 48.389-30.614 53.326-33.577 37.527-27.65 88.879-25.676 123.442 8.888l5.926 5.925c28.638 28.639 28.638 87.891 29.626 118.505-0.988 9.875-7.9 3.95-7.9 3.95zM569.871 24.043000000000006c-15.8 0-28.638 12.838-28.638 28.639s12.838 28.638 28.638 28.638c15.8 0 28.639-12.837 28.639-28.638s-12.838-28.639-28.639-28.639z m-92.828 319.962c48.39 0 93.816 4.938 134.305 13.825 25.676 72.09 94.803 123.442 174.793 123.442h8.888c0 1.975 0.988 3.95 0.988 5.925V596.8140000000001c0-79.003-142.205-143.193-318.974-143.193S158.07 517.8109999999999 158.07 596.8140000000001v-109.617c0-79.002 142.205-143.192 318.974-143.192z m0 149.118c175.781 0 318.974 64.19 318.974 143.192S653.813 779.508 477.044 779.508 158.07 714.33 158.07 635.328s142.205-142.205 318.974-142.205z m0-297.248c17.775 0 34.564 0.987 51.352 1.975l72.09 73.077c-0.988 7.9-0.988 14.813-0.988 22.714 0 7.9 0.988 14.813 0.988 22.713-37.527-7.9-79.99-11.85-123.442-11.85-176.769 0-318.974 64.19-318.974 143.192V338.08000000000004c0-79.003 142.205-142.205 318.974-142.205zM158.07 299.56500000000005V189.95000000000005c0-75.052 129.367-136.28 293.298-142.205-3.95 35.552 1.975 74.065 19.75 92.829l16.789 16.788h-10.863c-176.769-0.988-318.974 63.202-318.974 142.205z"  horiz-adv-x="1024" />

    
    <glyph glyph-name="redis" unicode="&#63001;" d="M991.80000031 290.4c-0.40000031-9.16000031-12.52000031-19.39999969-37.40000062-32.4-51.19999969-26.68000031-316.63999969-135.84-373.11999938-165.28000031-56.52-29.44000031-87.88000031-29.16-132.52000031-7.8-44.64 21.31999969-327.04000031 135.43999969-377.92000031 159.72-25.39999969 12.16000031-38.35999969 22.39999969-38.79999938 32.08000031v-97.03999969c0-9.67999969 13.36000031-19.96000031 38.79999938-32.12000062 50.88-24.31999969 333.31999969-138.40000031 377.92000031-159.72 44.64-21.36 76.00000031-21.64000031 132.52000031 7.84000031 56.47999969 29.44000031 321.88000031 138.55999969 373.11999938 165.28000031 26.04 13.56 37.60000031 24.12 37.60000031 33.67999969v95.68000031l-0.19999969 0.07999969zM991.76 448.60000031c-0.40000031-9.16000031-12.52000031-19.36000031-37.36000031-32.36000062-51.19999969-26.68000031-316.63999969-135.84-373.11999938-165.27999938-56.52-29.44000031-87.88000031-29.16-132.52000031-7.84000031-44.64 21.31999969-327.04000031 135.43999969-377.92000031 159.76000031-25.39999969 12.12-38.35999969 22.39999969-38.79999938 32.04v-97.04000062c0-9.67999969 13.36000031-19.92 38.79999938-32.07999938 50.88-24.31999969 333.28000031-138.40000031 377.92000031-159.72 44.64-21.36 76.00000031-21.64000031 132.52000031 7.8 56.47999969 29.44000031 321.88000031 138.6 373.11999938 165.27999938 26.04 13.60000031 37.60000031 24.16000031 37.60000031 33.72v95.68000031l-0.24 0.04000031zM991.76 612.6799996899999c0.48 9.76000031-12.28000031 18.31999969-37.96000031 27.76000031-49.92 18.28000031-313.72000031 123.28000031-364.23999938 141.79999969-50.52 18.48-71.08000031 17.71999969-130.40000062-3.6C399.72000031 757.39999969 118.83999969 647.20000031 68.88000031 627.6799996899999c-25.00000031-9.84-37.2-18.91999969-36.80000062-28.59999938V502.00000031c0-9.67999969 13.36000031-19.92 38.80000031-32.08000031 50.88-24.31999969 333.28000031-138.43999969 377.92000031-159.76000031 44.64-21.31999969 76.00000031-21.6 132.51999938 7.84000031 56.47999969 29.44000031 321.88000031 138.6 373.12000031 165.28000031 26.04 13.60000031 37.60000031 24.16000031 37.60000031 33.72V612.6799996899999h-0.32000062zM375.8 520.8l222.43999969 34.15999969-67.2-98.52-155.19999938 64.36000031z m492 88.72000031l-131.56000031-52.00000031-14.28-5.59999969-131.47999969 51.99999938 145.68 57.6 131.59999969-51.99999938z m-386.23999969 95.31999938l-21.52000031 39.68000062 67.12000031-26.24000062 63.27999938 20.72000062-17.11999969-41.00000062 64.48000031-24.15999938-83.16-8.64-18.64000031-44.80000031-30.07999969 49.96000031-96 8.64 71.64 25.83999938z m-165.72-55.99999969c65.68000031 0 118.87999969-20.59999969 118.87999969-46.03999969s-53.20000031-46.08-118.87999969-46.08-118.92 20.68000031-118.92 46.08c0 25.44 53.23999969 46.08 118.92 46.08z"  horiz-adv-x="1024" />

    
    <glyph glyph-name="user-setting" unicode="&#62722;" d="M273.682 638.222c0-72.096 39.16-138.7 102.753-174.735 63.594-36.048 141.938-36.048 205.533 0 63.58 36.035 102.752 102.64 102.752 174.735C684.721 749.667 592.711 840 479.202 840c-113.51 0-205.52-90.333-205.52-201.778z m0 0M533.854 146.97699999999998c0 88.244 34.172 167.885 88.887 228.129a475.022 475.022 0 0 1-144.382 22.86C219.131 397.965 8.99 191.66600000000005 8.99-62.837999999999965h598.85c-47.789 59.891-73.836 133.738-73.986 209.815z m0 0M1014.795 109.83399999999995l0.215 76.869s-51.691 10.051-52.521 13.439c-0.984 3.729-2.029 7.432-3.188 11.096 6.07 11.021 35.166 35.217 35.166 35.217l-58.316 76.24s-37.787-30.557-47.17-34.928a146.447 146.447 0 0 1-13.842 4.498c-5.076 1.258-19.121 50.115-19.121 50.115l-78.443 0.631s-8.477-47.346-21.186-50.607c-4.232-1.248-8.477-2.771-12.709-4.711-9.396 4.508-47.156 35.492-47.156 35.492l-58.33-77.498s29.234-28.906 31.211-38.605a155.347 155.347 0 0 1-3.463-9.283 577.59 577.59 0 0 0-48.215-11.234l0.139-76.869s41.514-8.465 49.424-15.316c1.625-4.447 3.525-8.742 5.504-12.973-9.598-11.777-35.154-31.326-35.154-31.326l60.156-76.883s47.232 30.027 54.99 31.754a172.736 172.736 0 0 1 11.791-4.572c7.129-2.432 12.154-47.207 12.154-47.207l78.367-0.201s2.609 43.943 8.389 45.67a162.95 162.95 0 0 1 16.678 6.109c6.563-2.508 37.559-32.861 37.559-32.861l77.512 77.498s-28.729 19.475-36.703 30.016a157.702 157.702 0 0 1 5.934 13.439c2.467 7.216 50.328 16.991 50.328 16.991m-199.461-58.293c-35.328 0-67.977 18.504-85.66 48.543-17.658 30.053-17.658 67.07 0 97.111 17.684 30.051 50.332 48.566 85.66 48.566 54.641 0 98.926-43.479 98.926-97.109 0-53.644-44.285-97.111-98.926-97.111"  horiz-adv-x="1024" />

    
    <glyph glyph-name="tools" unicode="&#63232;" d="M315 425.1c14.6-14.6 71.6-74.4 71.6-74.4l31.3 32.5-49.3 50.9 94.6 100.8s-42.5 41.4-24.1 25.2c17.9 66.6 1.7 140.5-48.7 192.6C340 804.2 268.9 821 205.1 803.6l108-112-28.5-109.7-105.8-29.1-108 112c-17.4-66.1-1.1-139.4 49.3-190.9 52.7-54.9 128.3-70.6 194.9-48.8z m360.4-108.6L545 187.79999999999995 760-35c17.4-18.5 40.9-27.4 63.8-27.4s45.9 9 63.8 27.4c35.3 36.4 35.3 95.2 0 131.5l-212.2 220z m284.4 373.9L822.7 832.1 418.5 414.5l49.3-50.9-241.3-249.7-55.4-29.7-77.8-127 19.6-20.7L236 17l28.5 57.1 241.8 249.7 49.3-50.9 404.2 417.5z"  horiz-adv-x="1024" />

    
    <glyph glyph-name="user-self" unicode="&#62979;" d="M512 864C246.4 864 32 649.6 32 384s214.4-480 480-480 480 214.4 480 480S777.6 864 512 864zM313.6-17.600000000000023l64 35.2c24 12.8 38.4 38.4 38.4 65.6v64l-3.2 4.8s-40 48-54.4 113.6l-1.6 6.4-4.8 3.2c-9.6 6.4-14.4 16-14.4 27.2v64c0 9.6 3.2 17.6 11.2 24l4.8 4.8V496s-4.8 44.8 25.6 80c27.2 30.4 72 44.8 134.4 44.8 62.4 0 107.2-16 134.4-44.8 30.4-35.2 25.6-80 25.6-80v-102.4l4.8-4.8c6.4-6.4 11.2-14.4 11.2-24v-64c0-14.4-9.6-25.6-22.4-30.4l-8-3.2-3.2-8c-11.2-33.6-25.6-64-44.8-91.2-4.8-6.4-9.6-12.8-12.8-17.6l-6.4-3.2v-65.6c0-28.8 16-54.4 41.6-67.2l72-35.2C646.4-48 580.8-64 512-64c-72 0-139.2 17.6-198.4 46.4z m425.6 16l-91.2 46.4c-14.4 8-24 22.4-24 38.4v54.4c3.2 4.8 8 9.6 11.2 16 19.2 28.8 35.2 59.2 48 92.8 22.4 9.6 36.8 32 36.8 57.6v64c0 16-6.4 30.4-16 41.6v84.8c1.6 8 4.8 60.8-33.6 104-33.6 36.8-86.4 56-158.4 56s-126.4-19.2-158.4-56c-38.4-43.2-33.6-96-33.6-104v-84.8c-9.6-11.2-16-27.2-16-41.6v-64c0-19.2 9.6-38.4 24-49.6 14.4-57.6 44.8-102.4 56-115.2v-52.8c0-16-8-30.4-22.4-36.8l-81.6-44.8C150.4 80 64 222.39999999999998 64 384 64 632 264 832 512 832s448-200 448-448c0-164.8-89.6-308.8-220.8-385.6z"  horiz-adv-x="1024" />

    
    <glyph glyph-name="pipeline" unicode="&#63019;" d="M213.333333 810.666667c-25.6 0-42.666667-17.066667-42.666666-42.666667v-768c0-25.6 17.066667-42.666667 42.666666-42.666667s42.666667 17.066667 42.666667 42.666667V768c0 25.6-17.066667 42.666667-42.666667 42.666667zM426.666667 640c-25.6 0-42.666667-17.066667-42.666667-42.666667v-426.666666c0-25.6 17.066667-42.666667 42.666667-42.666667s42.666667 17.066667 42.666666 42.666667V597.333333c0 25.6-17.066667 42.666667-42.666666 42.666667zM640 810.666667c-25.6 0-42.666667-17.066667-42.666667-42.666667v-768c0-25.6 17.066667-42.666667 42.666667-42.666667s42.666667 17.066667 42.666667 42.666667V768c0 25.6-17.066667 42.666667-42.666667 42.666667zM853.333333 640c-25.6 0-42.666667-17.066667-42.666666-42.666667v-426.666666c0-25.6 17.066667-42.666667 42.666666-42.666667s42.666667 17.066667 42.666667 42.666667V597.333333c0 25.6-17.066667 42.666667-42.666667 42.666667z"  horiz-adv-x="1024" />

    
    <glyph glyph-name="Container" unicode="&#62724;" d="M143.36 629.76v-467.57888l344.55552-175.86176L511.7952-25.600000000000023l21.46304 9.03168L880.64 160.52224V629.76l-368.8448-187.78112L143.36 629.76z m343.73632-590.848l-297.5744 149.97504V553.73824l297.5744-152.43264V38.912000000000035z m46.16192 361.5744l301.21984 153.25184v-364.8512L533.25824 38.502399999999966V400.4864zM510.17728 761.52832L828.0064 609.28 880.64 636.39552 564.4288 787.80416 510.17728 814.08l-54.272-26.27584L143.36 636.39552 195.584 609.28z"  horiz-adv-x="1024" />

    
    <glyph glyph-name="Monitoringinformati" unicode="&#58888;" d="M73.142857 109.714286V822.857143h877.714286v-713.142857H73.142857z m822.857143 658.285714H128V384h103.350857l145.700572 339.968 25.234285-10.825143 26.038857 8.704L575.122286 281.6l78.628571 117.613714 45.641143-30.427428-109.714286-164.571429-22.820571 15.213714-26.038857-8.704-141.750857 425.325715L291.035429 384H292.571429v-54.857143h-25.014858l-4.681142-10.971428-25.161143 10.971428h-109.714286V164.571429h768V768z m-219.428571-329.142857h219.428571V384h-219.428571v54.857143zM731.428571-54.857143H292.571429v54.857143h438.857142V-54.857143z"  horiz-adv-x="1024" />

    


  </font>
</defs>
</svg>
